<svg width="757" height="1009" viewBox="0 0 757 1009" fill="none" xmlns="http://www.w3.org/2000/svg">
<rect width="757" height="1009" fill="#F2F2F2"/>
<path d="M428 604L345.097 521.097C335.675 511.675 320.382 511.732 311.03 521.224L244.096 589.162C229.03 604.455 203 593.786 203 572.318V353C203 339.745 213.745 329 227 329H529C542.255 329 553 339.745 553 353V604M378 554L436.029 495.971C445.402 486.598 460.598 486.598 469.971 495.971L545.971 571.971C550.471 576.471 553 582.576 553 588.941V655C553 668.255 542.255 679 529 679H227C213.745 679 203 668.255 203 655V604" stroke="#B6B6B6" stroke-opacity="0.55" stroke-width="7" stroke-linecap="round" stroke-linejoin="round"/>
<path d="M303.982 454.648C324.422 454.648 340.992 438.079 340.992 417.639C340.992 397.199 324.422 380.629 303.982 380.629C283.543 380.629 266.973 397.199 266.973 417.639C266.973 438.079 283.543 454.648 303.982 454.648Z" stroke="#B6B6B6" stroke-opacity="0.55" stroke-width="7" stroke-linecap="round" stroke-linejoin="round"/>
</svg>
